# Aspose.3D Wavefront OBJ Exporter
# Copyright 2004-2024 Aspose Pty Ltd.
# File created: 12/23/2024 16:23:40

g node

#
# object node
#

v 0.031444 0.0136944 0.00855299
v 0.0293027 0.00941197 0.0103093
v 0.0314961 0.0137988 0.00848643
v 0.0323176 0.0154416 0.000484638
v 0.0285477 0.00790199 0.0107963
v 0.0253118 0.00143009 0.0116002
v 0.0256818 0.00217017 0.0115321
v 0.0323341 0.0154746 0.000294953
v 0.0323037 0.0154139 -1.49421E-05
v 0.0220372 -0.00511902 -0.0114651
v 0.0171823 -0.014829 -0.0108497
v 0.022739 -0.0037155 -0.011447
v 0.0282977 0.00740189 -0.0102883
v 0.0306151 0.0120367 -0.00899871
v 0.0138635 -0.0214664 0.00143005
v 0.0137468 -0.0217 -0.00179307
v 0.0137713 -0.0216509 -0.00205148
v 0.0140518 -0.0210898 0.00403727
v 0.0146884 -0.0198166 0.00657888
v 0.0218579 -0.00547769 0.0117809
v 0.0268998 0.00460604 0.0113005
v 0.0238343 -0.0015249 -0.0113174
v 0.02783 0.00646653 -0.0105457
v 0.0314648 0.013736 -0.00821394
v 0.0177399 -0.0137137 0.0112647
v 0.01731 -0.0145736 0.0109132
v 0.0162364 -0.0167206 0.00988261
v 0.0147344 -0.0197246 0.00674761
v 0.0139001 -0.0213934 -0.00292937
v 0.0213514 -0.00649068 0.0118046
v 0.0186065 -0.0119804 0.0114457
v 0.014911 -0.0193715 -0.00697597
v 0.0169171 -0.0153593 -0.0104968
v 0.0183877 -0.012418 0.0114133
v 0.065251 -0.002382 0.002701
v 0.0492869 -0.0114618 -0.00908705
v 0.056492 0.011135 0.00854
v 0.062358 0.007483 -0.007968
v 0.0317818 0.0138114 0.00849374
v 0.0520184 -0.014447 0.00541367
v 0.058867 0.003582 0.010091
v 0.065103 -0.002889 -0.007999
v 0.0622872 0.00767551 0.00852613
v 0.0327228 0.015504 0.000272982
v 0.0540764 0.00634647 0.0100855
v 0.047407 -0.010366 0.00970581
v 0.065247 -0.002377 0.008201
v 0.0626995 0.00785112 -0.00100732
v 0.0592035 -0.00962432 -0.00798886
v 0.0572329 -0.00113933 -0.00872872
v 0.0565157 0.0111436 -0.00798272
v 0.0142635 -0.0218321 -0.00185184
v 0.0594551 -0.00947961 0.00819313
v 0.056617 0.011635 -0.000917
v 0.0451834 0.00734086 -0.00948596
v 0.032334 0.0138223 -0.00812932
v 0.050868 -0.013348 0.007969
v 0.0520875 -0.0145033 -0.0047989
v 0.058858 -0.001919 0.010095
v 0.0633511 -0.00644456 0.00115024
v 0.0493848 0.012797 0.0009005
v 0.051029 -0.013503 -0.007365
v 0.0525498 -0.0149183 0.000445046
v 0.054091 -0.004661 0.010094
v 0.031444 0.0136944 0.00855299
v 0.0293027 0.00941197 0.0103093
v 0.0314961 0.0137988 0.00848643
v 0.0323176 0.0154416 0.000484638
v 0.0285477 0.00790199 0.0107963
v 0.0253118 0.00143009 0.0116002
v 0.0256818 0.00217017 0.0115321
v 0.032334 0.0154746 0.000294953
v 0.0171823 -0.014829 -0.0108497
v 0.0282977 0.00740189 -0.0102883
v 0.0306151 0.0120367 -0.00899871
v 0.0138635 -0.0214664 0.00143005
v 0.0137468 -0.0217 -0.00179307
v 0.0137713 -0.0216509 -0.00205148
v 0.0140518 -0.0210898 0.00403727
v 0.0146884 -0.0198166 0.00657888
v 0.0268998 0.00460604 0.0113005
v 0.0238343 -0.0015249 -0.0113174
v 0.02783 0.00646653 -0.0105457
v 0.0314648 0.013736 -0.00821394
v 0.0177399 -0.0137137 0.0112647
v 0.01731 -0.0145736 0.0109132
v 0.0162364 -0.0167206 0.00988261
v 0.0147344 -0.0197246 0.00674761
v 0.0139001 -0.0213934 -0.00292937
v 0.0213514 -0.00649068 0.0118046
v 0.0186065 -0.0119804 0.0114457
v 0.014911 -0.0193715 -0.00697597
v 0.0169171 -0.0153593 -0.0104968
v 0.0183877 -0.012418 0.0114133
# 94 vertices

vn -0.894431 0.447206 -1.64633E-06
vn -0.894489 0.447089 -3.41883E-05
vn -0.894431 0.447206 -2.0274E-06
vn -0.894427 0.447214 2.01217E-07
vn -0.894427 0.447213 1.97842E-07
vn -0.894427 0.447213 1.8999E-07
vn -0.894427 0.447214 0
vn -0.894427 0.447213 1.54897E-07
vn -0.894427 0.447214 0
vn -0.894427 0.447214 0
vn -0.894427 0.447214 0
vn -0.894427 0.447215 -1.27874E-06
vn -0.894427 0.447214 1.45651E-07
vn -0.894427 0.447214 0
vn -0.894427 0.447213 0
vn -0.894426 0.447217 -1.07853E-05
vn -0.894427 0.447213 9.32482E-07
vn -0.894427 0.447214 0
vn -0.894427 0.447214 0
vn -0.894427 0.447214 -9.51308E-06
vn -0.894427 0.447214 0
vn -0.894427 0.447214 -7.61124E-07
vn -0.894427 0.447214 4.35115E-06
vn -0.894428 0.447213 -6.86367E-06
vn -0.894427 0.447215 1.24087E-05
vn -0.894427 0.447214 2.07457E-06
vn -0.894428 0.447212 -1.38696E-05
vn -0.894427 0.447214 3.45538E-07
vn -0.894428 0.447212 -9.17195E-06
vn -0.894428 0.447212 -7.80025E-06
vn -0.894427 0.447214 1.09119E-06
vn -0.894427 0.447214 -1.43668E-06
vn 0.147502 0.243246 0.958684
vn 0.104841 0.971619 0.212051
vn -0.0457242 0.553312 0.831718
vn 0.137745 0.240612 0.960798
vn 0.954269 -0.298947 0.000965953
vn 0.343614 0.0708845 0.936432
vn -0.0650624 0.984083 0.165369
vn -0.0844321 0.979353 -0.183682
vn 0.964881 0.255543 -0.0608525
vn 0.972051 0.233488 -0.0245084
vn 0.970252 0.242097 0.000485696
vn 0.958647 0.28075 0.0466305
vn 0.130499 -0.115787 -0.984664
vn 0.0645258 -0.0952192 -0.993363
vn 0.085406 -0.0311738 -0.995858
vn 0.0986964 0.0290935 -0.994692
vn 0.0464632 0.246134 -0.968121
vn 0.529754 0.8452 -0.0706892
vn -0.238547 -0.967931 0.078769
vn -0.26425 -0.942584 -0.204224
vn 0.142229 -0.898806 0.41463
vn 0.0446895 0.00378365 0.998994
vn 0.039757 0.074819 0.996404
vn 0.0357195 0.133661 0.990383
vn 0.51197 0.857422 0.0520997
vn 0.528244 0.848221 0.0384698
vn 0.526342 0.847669 -0.0664988
vn 0.156005 0.985219 -0.0707557
vn 0.0574286 0.067476 -0.996067
vn 0.0861557 0.133534 -0.987292
vn 0.0876914 0.0357067 -0.995508
vn 0.109075 0.973719 -0.199935
vn 0.108858 -0.743282 0.660062
vn 0.0941773 -0.468693 0.878326
vn 0.142472 -0.369464 0.918258
vn 0.345423 -0.795609 0.497684
vn -0.218168 -0.927354 -0.304003
vn 0.0566853 -0.0933333 0.99402
vn 0.137934 -0.231359 0.963041
vn 0.26328 -0.215737 0.940288
vn 0.284236 0.000232109 0.958754
vn 0.747476 -0.654886 -0.111373
vn 0.902627 -0.430387 0.00557915
vn 0.765612 -0.624498 0.154403
vn 0.160135 0.987076 0.00613206
vn 0.157506 0.985188 0.0678
vn 0.171684 0.983656 0.054276
vn 0.103492 -0.684771 -0.721373
vn 0.142608 -0.90087 -0.409996
vn 0.190092 -0.533218 -0.824345
vn 0.351091 -0.814289 -0.462243
vn 0.170151 -0.979138 0.111074
vn 0.18236 -0.978773 -0.0935357
vn 0.514851 -0.846526 0.135362
vn 0.526865 -0.842389 -0.113114
vn 0.617141 -0.786849 0.00230816
vn 0.617488 -0.786553 -0.00657018
vn 0.116093 -0.202183 0.972443
vn 0.0375774 0.36303 0.93102
vn 0.0375771 0.36303 0.931019
vn -0.0482759 0.97939 0.196124
vn -0.0482769 0.97939 0.196124
vn 0.0441114 0.286629 0.957026
vn 0.0441113 0.286628 0.957026
vn 0.0402275 0.0716928 0.996615
vn 0.0402274 0.0716937 0.996615
vn 0.0805671 -0.0274311 -0.996372
vn 0.080567 -0.0274313 -0.996372
vn 0.166359 -0.977566 0.12919
vn 0.166357 -0.977566 0.12919
vn 0.0469133 0.243185 -0.968845
vn 0.0469133 0.243186 -0.968845
vn 0.0770273 0.0204371 -0.996819
vn 0.0770274 0.020437 -0.996819
vn 0.0496599 0.39817 -0.915966
vn 0.0496599 0.39817 -0.915966
vn -0.0783632 0.978229 -0.192164
vn -0.0783612 0.978229 -0.192164
vn 0.0945405 -0.416824 0.904057
vn 0.0945405 -0.416824 0.904057
vn 0.141134 -0.884804 0.444075
vn 0.141134 -0.884805 0.444074
vn 0.0454547 0.00065334 0.998966
vn 0.0454548 0.000651999 0.998966
vn 0.105635 -0.587006 -0.802661
vn 0.105635 -0.587005 -0.802662
vn 0.141649 -0.899228 -0.413914
vn 0.141651 -0.899228 -0.413913
vn 0.0590854 -0.103083 0.992916
vn 0.0590852 -0.103083 0.992916
vn 0.0684774 -0.147368 0.986708
vn 0.0684774 -0.147367 0.986709
# 124 vertex normals

s 1
f 1//1 3//1 4//1
f 1//2 4//2 8//2
f 1//3 8//3 9//3
f 1//4 9//4 24//4
f 1//5 24//5 14//5
f 1//6 14//6 13//6
f 1//7 13//7 23//7
f 1//8 23//8 22//8
f 1//9 22//9 12//9
f 1//10 12//10 10//10
f 1//11 10//11 11//11
f 1//12 11//12 33//12
f 1//13 33//13 32//13
f 1//14 32//14 29//14
f 1//15 29//15 17//15
f 1//16 17//16 16//16
f 1//17 16//17 15//17
f 1//18 15//18 18//18
f 1//19 18//19 19//19
f 1//20 19//20 28//20
f 1//21 28//21 27//21
f 1//22 27//22 26//22
f 1//23 26//23 25//23
f 1//24 25//24 34//24
f 1//25 34//25 31//25
f 1//26 31//26 30//26
f 1//27 30//27 20//27
f 1//28 20//28 6//28
f 1//29 6//29 7//29
f 1//30 7//30 21//30
f 1//31 21//31 5//31
f 1//32 5//32 2//32
f 43//33 37//33 41//33
f 44//34 39//34 37//34
f 39//35 67//35 65//35
f 45//36 41//36 37//36
f 47//37 42//37 35//37
f 47//38 43//38 41//38
f 44//39 72//39 68//39
f 72//40 44//40 9//40
f 48//41 42//41 38//41
f 48//42 35//42 42//42
f 48//43 47//43 35//43
f 48//44 43//44 47//44
f 49//45 36//45 42//45
f 36//46 73//46 10//46
f 50//47 42//47 36//47
f 50//48 38//48 42//48
f 51//49 74//49 75//49
f 51//50 48//50 38//50
f 52//51 76//51 77//51
f 52//52 77//52 78//52
f 40//53 80//53 79//53
f 20//54 41//54 70//54
f 45//55 81//55 71//55
f 81//56 45//56 69//56
f 54//57 37//57 43//57
f 54//58 43//58 48//58
f 54//59 48//59 51//59
f 54//60 51//60 44//60
f 55//61 82//61 83//61
f 55//62 51//62 38//62
f 55//63 38//63 50//63
f 56//64 44//64 51//64
f 57//65 87//65 88//65
f 57//66 86//66 87//66
f 57//67 53//67 46//67
f 57//68 40//68 53//68
f 89//69 52//69 78//69
f 59//70 90//70 91//70
f 59//71 46//71 53//71
f 59//72 53//72 47//72
f 59//73 47//73 41//73
f 60//74 49//74 42//74
f 60//75 42//75 47//75
f 60//76 47//76 53//76
f 61//77 54//77 44//77
f 61//78 44//78 37//78
f 61//79 37//79 54//79
f 62//80 92//80 93//80
f 62//81 58//81 52//81
f 62//82 36//82 49//82
f 62//83 49//83 58//83
f 63//84 40//84 52//84
f 63//85 52//85 58//85
f 63//86 53//86 40//86
f 63//87 58//87 49//87
f 63//88 60//88 53//88
f 63//89 49//89 60//89
f 64//90 46//90 59//90
f 39//91 66//91 37//91
f 66//92 39//92 65//92
f 67//93 39//93 68//93
f 44//94 68//94 39//94
f 45//95 66//95 69//95
f 66//96 45//96 37//96
f 70//97 45//97 71//97
f 45//98 70//98 41//98
f 50//99 36//99 12//99
f 10//100 12//100 36//100
f 52//101 79//101 76//101
f 79//102 52//102 40//102
f 55//103 74//103 51//103
f 74//104 55//104 83//104
f 55//105 12//105 82//105
f 12//106 55//106 50//106
f 56//107 75//107 84//107
f 75//108 56//108 51//108
f 56//109 9//109 44//109
f 9//110 56//110 84//110
f 57//111 46//111 86//111
f 85//112 86//112 46//112
f 57//113 80//113 40//113
f 80//114 57//114 88//114
f 59//115 20//115 90//115
f 20//116 59//116 41//116
f 62//117 93//117 36//117
f 73//118 36//118 93//118
f 62//119 52//119 92//119
f 89//120 92//120 52//120
f 64//121 91//121 94//121
f 91//122 64//122 59//122
f 64//123 94//123 46//123
f 85//124 46//124 94//124
#124 polygons

