# Aspose.3D Wavefront OBJ Exporter
# Copyright 2004-2024 Aspose Pty Ltd.
# File created: 12/23/2024 16:21:49

g node

#
# object node
#

v 96.3641 -2.59942 -37.1775
v 93.932 -2.57453 -3.29509
v 80.9501 3.40564 -18.5544
v 81.4266 -8.59861 -24.2363
v 103.317 -2.57026 -4.90544
v 83.983 3.39885 -29.3506
v 107.645 3.42878 -9.25649
v 96.9298 -8.57429 -5.2178
v 96.9227 3.4257 -5.22735
v 79.3768 -2.59989 -24.3278
v 88.2759 -8.60162 -33.1169
v 86.251 3.41664 -8.67213
v 85.3595 -2.58236 -6.75145
v 91.2533 3.4218 -5.91495
v 110.507 -2.56784 -8.41251
v 102.443 -8.57221 -6.69825
v 86.2581 -8.58335 -8.66258
v 102.436 3.42779 -6.7078
v 88.2688 3.39838 -33.1265
v 81.4195 3.40139 -24.2459
v 99.3631 -7.65128 -35.4543
v 94.6368 3.29482 -35.3722
v 110.225 0.9572 -8.99094
v 99.3677 -8.59636 -34.7661
v 82.642 3.41098 -13.0999
v 110.169 -6.53741 -9.1026
v 91.2604 -8.5782 -5.9054
v 109.845 1.93499 -9.28722
v 80.9125 -2.60142 -27.3965
v 79.2868 -2.59596 -19.3207
v 82.6491 -8.58901 -13.0903
v 94.6358 -8.59954 -35.3223
v 99.2211 3.4032 -35.1595
v 99.3614 2.43073 -35.4525
v 107.654 -8.57026 -9.24751
v 83.9901 -8.60115 -29.341
v 87.2433 0.975425 -33.5948
v 79.735 -2.5921 -14.8127
v 81.7434 -2.58825 -11.4577
v 109.013 2.86637 -9.47525
v 80.9572 -8.59435 -18.5448
v 92.8933 -2.59027 -36.9993
v 109.022 -8.00621 -9.46717
v 84.3938 -2.83173 -32.8061
# 44 vertices

vn -0.000592673 1 -0.000795413
vn 0.164866 -0.225343 0.960229
vn -0.112796 0.355069 0.92801
vn 0.164598 0.227067 0.959869
vn -0.455574 0.332133 0.825918
vn -0.363958 0.231578 0.902167
vn -0.000588264 1 -0.00079678
vn -0.000588914 1 -0.000796016
vn 0.431222 0.179587 0.884192
vn 0.43046 -0.19005 0.882375
vn 0.925242 0.0117972 -0.379194
vn 0.356629 -0.314688 0.879652
vn 0.24666 -0.310167 0.918126
vn 0.357383 -0.582449 0.730089
vn -0.000594211 1 -0.000825951
vn -0.000591824 1 -0.000792275
vn 0.246288 0.311916 0.917633
vn 0.357903 0.316541 0.878468
vn 0.356687 0.583959 0.729223
vn -0.0189042 0.99486 -0.0994834
vn -0.000586816 1 -0.000790512
vn -0.94345 0.322195 -0.0780503
vn -0.000593485 1 -0.000795641
vn 0.498508 0.00023894 -0.866885
vn 0.925345 -0.0129214 -0.378905
vn 0.924554 0.000224071 -0.38105
vn -0.738995 0.302547 0.601956
vn -0.000593591 1 -0.000794482
vn -0.000593116 1 -0.000795051
vn 0.373951 -0.487808 0.7888
vn 0.898162 -0.255946 -0.357486
vn 0.000742295 -0.999999 0.000752311
vn 0.000594765 -1 0.00079255
vn 0.000606877 -1 0.000806981
vn 0.000573612 -0.999999 0.000836528
vn -0.455181 -0.331357 0.826446
vn -0.363684 -0.230572 0.902536
vn -0.112376 -0.353724 0.928575
vn 0.000592478 -1 0.000801436
vn 0.000592076 -1 0.000795772
vn 0.372139 0.398614 0.838224
vn 0.372998 0.492008 0.786639
vn -0.0484979 0.279489 -0.958923
vn -0.853252 0.297039 -0.428637
vn -0.853994 0.296515 -0.42752
vn -0.811254 0.241765 -0.532368
vn -0.853641 -0.298208 -0.427047
vn -0.962345 0.254519 0.0954624
vn -0.962949 0.269113 -0.0175205
vn -0.738634 -0.302464 0.602441
vn 0.000589949 -1 0.00079746
vn 0.000590774 -1 0.00079647
vn 0.0536669 0.295159 -0.95394
vn 0.0370365 0.30256 -0.952411
vn 0.902141 0.242465 -0.356866
vn 0.903145 0.237964 -0.357353
vn 0.000589379 -1 0.000793485
vn -0.8185 -0.252626 -0.515983
vn -0.852898 -0.298733 -0.428163
vn -0.642737 0.338713 -0.687141
vn -0.608414 0.390988 -0.690623
vn -0.336686 0.31407 -0.887695
vn -0.89347 0.353689 0.276793
vn -0.828673 0.259833 0.49577
vn -0.762653 0.274547 0.585649
vn -0.762329 -0.274513 0.586087
vn -0.828367 -0.26002 0.496183
vn 0.361306 0.924898 -0.118413
vn 0.788123 -0.543949 -0.288066
vn 0.744399 0.610252 -0.271041
vn -0.308213 0.337247 -0.889533
vn -0.612874 -0.374886 -0.695591
vn -0.96263 -0.270279 -0.0170914
vn -0.943069 -0.323435 -0.0775362
vn -0.962043 -0.255504 0.095869
vn 0.00058688 -1 0.000796897
vn -0.424226 -0.238369 -0.87362
vn -0.0499382 -0.281871 -0.958152
vn 0.362496 -0.924642 -0.116763
vn -0.440998 0.146638 -0.885448
vn -0.893052 -0.354303 0.277358
vn 0.0344517 -0.304265 -0.951964
vn 0.0950089 -0.585692 -0.804946
vn -0.308294 -0.337592 -0.889374
# 84 vertex normals

s 1
f 6//1 3//1 14//1
f 8//2 5//2 2//2
f 9//3 14//3 2//3
f 9//4 2//4 5//4
f 12//5 13//5 14//5
f 13//6 2//6 14//6
f 14//7 7//7 6//7
f 33//8 6//8 7//8
f 15//9 23//9 5//9
f 15//10 5//10 26//10
f 15//11 34//11 23//11
f 16//12 26//12 5//12
f 16//13 5//13 8//13
f 16//14 35//14 43//14
f 18//15 7//15 14//15
f 18//16 14//16 9//16
f 18//17 9//17 5//17
f 18//18 5//18 23//18
f 18//19 40//19 7//19
f 19//20 33//20 22//20
f 19//21 6//21 33//21
f 20//22 10//22 3//22
f 20//23 3//23 6//23
f 21//24 1//24 34//24
f 21//25 15//25 26//25
f 21//26 34//26 15//26
f 25//27 13//27 12//27
f 25//28 12//28 14//28
f 25//29 14//29 3//29
f 26//30 16//30 43//30
f 26//31 24//31 21//31
f 32//32 35//32 16//32
f 32//33 16//33 4//33
f 32//34 4//34 11//34
f 32//35 24//35 35//35
f 27//36 13//36 17//36
f 27//37 2//37 13//37
f 27//38 8//38 2//38
f 27//39 16//39 8//39
f 27//40 4//40 16//40
f 28//41 18//41 23//41
f 28//42 40//42 18//42
f 42//43 22//43 1//43
f 29//44 20//44 6//44
f 29//45 10//45 20//45
f 29//46 6//46 44//46
f 29//47 4//47 10//47
f 30//48 38//48 3//48
f 30//49 3//49 10//49
f 31//50 17//50 13//50
f 31//51 27//51 17//51
f 31//52 4//52 27//52
f 33//53 34//53 1//53
f 33//54 1//54 22//54
f 34//55 28//55 23//55
f 34//56 33//56 28//56
f 36//57 11//57 4//57
f 36//58 29//58 44//58
f 36//59 4//59 29//59
f 37//60 44//60 6//60
f 37//61 6//61 19//61
f 37//62 19//62 42//62
f 38//63 25//63 3//63
f 39//64 25//64 38//64
f 39//65 13//65 25//65
f 39//66 31//66 13//66
f 39//67 38//67 31//67
f 40//68 33//68 7//68
f 43//69 24//69 26//69
f 40//70 28//70 33//70
f 22//71 42//71 19//71
f 44//72 11//72 36//72
f 41//73 30//73 10//73
f 41//74 10//74 4//74
f 41//75 38//75 30//75
f 41//76 4//76 31//76
f 42//77 11//77 44//77
f 42//78 1//78 32//78
f 43//79 35//79 24//79
f 44//80 37//80 42//80
f 38//81 41//81 31//81
f 21//82 32//82 1//82
f 21//83 24//83 32//83
f 32//84 11//84 42//84
#84 polygons

