# Aspose.3D Wavefront OBJ Exporter
# Copyright 2004-2024 Aspose Pty Ltd.
# File created: 09/19/2024 12:41:45

g node

#
# object node
#

v -0.011288 0.002447 -0.00992
v 0.032611 0.000958 0.008695
v -0.004243 -0.012324 0.00884
v -0.005717 0.010241 0.009695
v 0.020377 -0.010171 -0.008809
v 0.025588 0.009591 -0.008501
v 0.008465 -0.009793 0.010425
v -0.011276 0.002447 0.010162
v -0.004254 -0.012324 -0.008607
v 0.02487 0.009382 0.0087
v -0.002688 0.011264 -0.008384
v 0.008436 -0.009794 -0.010206
v 0.032513 -0.001667 -0.008505
v 0.027812 -0.007994 0.008698
v -0.009148 0.0074 0.010196
v -0.008728 -0.006838 0.009954
v 0.002416 -0.014904 0.000113
v 0.030359 0.006679 0.008696
v -3.7E-05 0.0074 -0.010009
v 0.011862 0.013783 0.000107
v -0.00874 -0.006838 -0.009715
v 0.010145 -0.012725 -0.007203
v 0.015642 0.007743 -0.009686
v 0.018877 -0.008902 -0.009597
v 0.027571 -0.001085 0.009698
v 0.010153 -0.012725 0.00742
v 0.032118 -0.004123 0.008695
v 0.028208 -0.007649 -0.006402
v -0.010853 0.004221 0.009621
v 0.002271 -0.0019 0.010571
v -0.00916 0.0074 -0.009957
v 0.015639 0.008118 0.009863
v -0.006073 -0.010205 0.009719
v -0.001543 -0.014899 0.000115
v 0.022597 -0.011962 0.000101
v 0.029035 0.008204 -0.004703
v 0.014273 0.013337 0.000106
v 0.010424 0.012589 -0.006807
v -0.00275 0.011251 0.008816
v -0.006113 -0.010204 -0.00948
v 0.002259 -0.0019 -0.010345
v -0.010664 -0.002914 0.010086
v 0.007986 -0.009834 -0.010209
v -0.002852 -0.013682 -0.006857
v 0.031601 0.005521 -0.008504
v -0.005796 0.010206 -0.009472
v 0.02873 -0.006565 -0.008503
v 0.032601 0.000918 -0.008505
v 0.0126 -0.005682 -0.009983
v 0.019107 -0.00895 0.009779
v 0.027571 0.00292 0.009698
v 0.008002 -0.009834 0.010428
v -0.002844 -0.013682 0.007088
v 0.032611 -0.001742 0.008695
v 0.030721 -0.006113 0.008696
v -0.010864 0.004221 -0.009479
v 9.8E-05 0.011371 0.009116
v -2.5E-05 0.0074 0.010238
v 0.024112 0.004918 0.0097
v 0.021799 -0.01137 -0.00588
v 0.007608 -0.014216 0.00271
v 0.021295 -0.01096 0.007491
v 0.025589 0.009591 -0.004701
v 0.029284 0.00766 0.006497
v 0.011496 0.013475 0.004184
v 0.011491 0.013475 -0.003969
v -0.006692 -0.009664 0.009618
v -0.010676 -0.002914 -0.009845
v 0.015651 0.0074 -0.009696
v -0.009057 -0.006282 0.00962
v 0.008292 -0.009807 -0.010207
v -0.006186 -0.01027 -0.009456
v 0.015627 0.008118 -0.009653
v 0.029202 0.007718 -0.006703
v 0.031603 0.005521 -0.004704
v -1.3E-05 0.01138 -0.008884
v -0.006446 0.009826 0.008818
v 0.019094 -0.008895 -0.009569
v 0.031711 -0.00477 -0.006404
v 0.032601 -0.00108 -0.008505
v 0.032347 0.002979 -0.008505
v 0.032611 0.000998 0.008695
v 0.015654 0.007743 0.009896
v -0.006175 -0.010271 0.009692
v 0.032117 -0.004123 0.006495
v 0.019155 -0.008948 0.009773
v 0.03072 -0.006113 0.006496
v 0.015606 0.008627 0.009774
v 0.021664 -0.011238 -0.006399
v 0.007606 -0.014326 -0.00049
v 0.022359 -0.011791 -0.003294
v 0.006292 -0.014462 0.002022
v 0.022192 -0.011664 0.004507
v 0.013062 0.013568 0.000107
v 0.010432 0.012589 0.007023
v 0.014929 0.011945 -0.0069
v -0.006693 -0.009664 0.008818
v -0.009068 -0.006282 -0.00948
v -0.00615 -0.010237 -0.009468
v 0.005958 0.008869 -0.009675
v 0.015594 0.008627 -0.009564
v -0.006456 0.009826 -0.009482
v -0.006445 0.009826 0.009618
v 0.031716 -0.00477 0.002096
v 0.032579 -0.001377 -0.008505
v 0.03261 0.000918 0.006495
v 0.032348 0.002979 -0.006705
v 0.03261 0.000998 0.006895
v -0.006241 -0.010195 0.009701
v -0.006124 -0.010238 0.009706
v -0.005149 -0.011407 -0.008283
v 0.015625 0.008364 0.009826
v 0.00597 0.008869 0.009896
v 0.021728 -0.011308 -0.006136
v 0.006866 -0.014439 -0.000308
v 0.008942 -0.014056 0.001992
v 0.014937 0.011945 0.007111
v -0.006703 -0.009664 -0.009482
v -0.006252 -0.010195 -0.009465
v 0.015613 0.008364 -0.009616
v -0.006456 0.009826 -0.008382
v 0.03261 -0.001742 0.006495
v -0.00647 -0.00993 0.008818
v -0.005668 -0.01085 -0.008282
v -0.005139 -0.011407 0.008317
v 0.006366 0.008509 0.009952
v 0.006357 -0.014513 0.000111
v -0.006703 -0.009664 -0.008382
v -0.006186 -0.01027 -0.008282
v -0.006252 -0.010195 -0.008382
v 0.006354 0.008509 -0.009731
v -0.005658 -0.010851 0.008318
v 0.008855 -0.01413 0.000109
v -0.006242 -0.010195 0.008818
v -0.006176 -0.010271 0.008318
v -0.00648 -0.00993 -0.008382
v 0.008298 -0.014219 -0.000333
# 137 vertices

vn 0.0900646 -0.446382 -0.890299
vn -0.97269 0.23211 0.000581235
vn -0.801428 0.340951 0.491392
vn -0.0284572 0.00536451 0.999581
vn -0.881293 0.472571 0.000524765
vn -0.170663 0.98533 0.000129564
vn -0.0296643 0.00527819 -0.999546
vn -0.0056964 0.0347003 -0.999382
vn 0.0196837 0.0409512 -0.998967
vn -0.0360317 -0.0182781 0.999183
vn 0.0617823 -0.696843 -0.714558
vn 0.0497502 -0.701775 -0.71066
vn -0.048533 -0.107209 -0.993051
vn 0.0657929 -0.973199 -0.220351
vn 0.0401235 -0.773572 -0.632437
vn -0.00133099 -0.985146 -0.171713
vn -0.00561 0.176842 -0.984223
vn -0.322112 0.946701 -0.000445554
vn -0.322358 0.946618 -0.000399928
vn 0.0586778 -0.00528257 -0.998263
vn 0.0652109 -0.059919 0.996071
vn 0.0980669 -0.684203 0.722669
vn 0.19518 0 0.980767
vn 0.0330647 0.00746069 0.999425
vn 0.0380234 0 0.999277
vn 0.0662096 -0.695332 0.715632
vn 0.0505462 -0.701764 0.710614
vn -0.0472211 -0.106555 0.993185
vn -0.0376082 -0.0521245 0.997932
vn 0.00758878 -0.0125401 0.999893
vn -0.0340977 -0.0426267 0.998509
vn 0.040816 -0.773669 0.632274
vn -0.00115749 -0.985145 0.171722
vn -0.682018 -0.731335 0.000391265
vn -0.696231 -0.717817 0.000438957
vn -0.696003 -0.718039 0.000399288
vn 0.19518 0 0.980767
vn 0.190091 -0.0393596 0.980977
vn 0.542099 -0.838305 0.0580835
vn 0.147916 -0.103344 0.983586
vn 0.121282 -0.120371 0.985293
vn -0.75939 0.32204 -0.565346
vn -0.972637 0.232329 0.00056015
vn -0.881337 0.472488 0.000507569
vn -0.0961854 0.799071 0.593493
vn -0.00452936 0.178967 0.983845
vn -0.00460092 0.0346487 0.999389
vn 0.0998525 0.201329 0.974421
vn 0.10577 0.182133 0.977569
vn 0.0541657 0.092778 0.994212
vn 0.457111 -0.831579 -0.315478
vn 0.0638605 -0.960837 0.269657
vn 0.10554 -0.69486 0.711359
vn 0.373386 0.927676 -9.8283E-05
vn 0.373181 0.927118 0.0344813
vn 0.326419 0.944675 0.0322463
vn 0.314232 0.949346 -8.27126E-05
vn 0.378956 0.924695 0.0364888
vn 0.434578 0.882233 0.181127
vn 0.648343 0.761014 0.0225495
vn 0.247598 0.959249 0.136146
vn -0.134015 0.988995 0.0626837
vn -0.0675379 0.964482 0.255368
vn 0.226925 0.966215 -0.122201
vn -0.134756 0.988908 -0.0624606
vn -0.037193 -0.0182239 -0.999142
vn -0.038825 -0.0522144 -0.997881
vn -0.0352589 -0.0425662 -0.998471
vn -0.993546 -0.113429 0.000598196
vn -0.993548 -0.113413 0.000593698
vn 0.0276865 0.0298584 -0.999171
vn 0.0392884 0.0131497 -0.999141
vn 0.0648368 0.00677056 -0.997873
vn 0.041393 0.0122644 -0.999068
vn 0.0733054 0.00845004 -0.997274
vn 0.078133 0.031103 -0.996458
vn -0.860756 -0.509017 0.000525149
vn -0.886439 -0.441969 0.137435
vn -0.902499 -0.430692 0.000543382
vn 0.0655231 -0.668799 -0.74055
vn 0.0644863 -0.676517 -0.733598
vn 0.00756439 -0.0116796 -0.999903
vn 0.0079718 -0.0113687 -0.999904
vn -0.0357933 -0.410319 -0.911239
vn 0.0861185 0.0907522 -0.992143
vn 0.0934875 0.138845 -0.985892
vn 0.0185831 0.0883825 -0.995913
vn 0.541911 0.800805 -0.255038
vn 0.516185 0.841152 -0.161299
vn 0.610269 0.779979 -0.138578
vn 0.722419 0.691455 -0.000380312
vn 0.722402 0.691435 0.00731242
vn 0.059708 0.702641 -0.709035
vn -0.0556651 0.958846 -0.278415
vn -0.127377 0.86791 -0.480111
vn -0.0831977 0.972037 -0.219595
vn -0.667969 0.744189 0.000397739
vn -0.495139 0.868814 0.000454291
vn 0.13044 -0.0969173 -0.986708
vn 0.134176 -0.104034 -0.985481
vn 0.187482 -0.35662 -0.915245
vn 0.129771 -0.407826 -0.903791
vn 0.678256 -0.524066 -0.515095
vn 0.617203 -0.75114 -0.234201
vn 0.0793179 0 -0.996849
vn 0.077206 0.0230499 -0.996749
vn 0.0735382 0.00906285 -0.997251
vn 0.19518 0 0.980767
vn 0.227263 0.0899184 0.969673
vn 0.928251 0.367958 0.0543769
vn 0.0528009 0.0896334 0.994574
vn 0.0287547 0.0300313 0.999135
vn 0.0208943 0.040927 0.998944
vn 0.0197884 0.0884283 0.995886
vn -0.0346402 -0.41071 0.911108
vn 0.979229 -0.202756 -0.000444382
vn 0.965144 -0.26115 -0.0172793
vn 0.128854 -0.1535 0.979711
vn 0.144211 -0.222 0.964323
vn 0.16378 -0.658706 0.734358
vn 0.118221 -0.687215 0.71677
vn 0.584472 -0.811414 -0.000265733
vn 0.594577 -0.803788 -0.0200775
vn 0.634613 -0.772182 -0.0316386
vn 0.0561807 0.521651 0.851307
vn 0.0235733 0.357138 0.933754
vn 0.0965337 0.201939 0.974629
vn 0.145193 -0.873672 -0.464345
vn 0.352443 -0.77145 -0.529764
vn 0.472661 -0.847826 -0.240381
vn 0.547274 -0.83309 -0.0803268
vn 0.157817 -0.985601 -0.0607064
vn 0.132791 -0.974266 -0.182131
vn 0.13442 -0.973021 -0.187516
vn 0.0530394 -0.968144 0.244714
vn 0.0198714 -0.982148 0.187055
vn 0.48857 -0.866364 0.103506
vn 0.344936 -0.885077 0.312501
vn 0.149006 -0.951469 0.269267
vn 0.140324 -0.963235 0.2291
vn 0.186618 0.977926 0.0939886
vn 0.175646 0.980347 0.0898292
vn 0.175642 0.980326 -0.0900648
vn 0.186465 0.977937 -0.0941817
vn -0.0567148 0.958905 0.278001
vn 0.0670118 0.682347 0.72795
vn 0.162525 0.939981 -0.300037
vn 0.111183 0.851715 -0.512075
vn 0.126302 0.932422 -0.33858
vn -0.811302 -0.584626 0.0010139
vn -0.811402 -0.584489 0.000495032
vn -0.902446 -0.430803 0.000519726
vn -0.878659 -0.439674 -0.186132
vn -0.861205 -0.508258 0.000495975
vn -0.0414002 -0.30011 -0.953006
vn -0.0413465 -0.301304 -0.952631
vn 0.00575005 0.199333 -0.979915
vn 0.0467134 0.48106 -0.875442
vn 0.018711 0.308874 -0.950919
vn 0.0223701 0.357438 -0.933669
vn -0.236747 0.434065 -0.869217
vn -0.667846 0.744299 0.000835007
vn -0.428214 0.631188 0.646711
vn -0.495289 0.868728 0.000619259
vn 0.818443 -0.574552 0.00647391
vn 0.851158 -0.524909 -0.000386256
vn 0.851505 -0.524346 -0.000500819
vn 0.802477 -0.596683 -0.000471983
vn 0.802645 -0.596457 -0.000364927
vn 0.0906857 -0.0206391 -0.995666
vn 0.0827889 -0.00613191 -0.996548
vn 0.975011 -0.221902 -0.0105926
vn 0.959533 0.281594 -0.000532209
vn 0.959528 0.281612 -0.000505135
vn 0.991851 0.127404 -0.000550134
vn 0.963223 0.268099 0.0180373
vn 0.992491 0.122315 -0.00121545
vn 0.991853 0.127386 -0.000552188
vn 0.999995 0.00300009 -0.000600017
vn 0.999996 0.00278361 -0.000556722
vn -0.114523 -0.15875 0.980654
vn -0.740897 -0.575038 0.346991
vn -0.0383272 -0.339478 0.939833
vn -0.0395621 -0.31272 0.949021
vn -0.12258 -0.22102 0.967535
vn -0.116267 -0.203303 0.972188
vn -0.721098 -0.692032 -0.0333006
vn 0.0765721 0.152559 0.985324
vn 0.0955682 0.199714 0.975183
vn 0.0168077 0.14965 0.988596
vn 0.0197735 0.307794 0.951247
vn 0.00671092 0.200683 0.979633
vn 0.0173162 0.195137 0.980623
vn 0.141379 -0.952457 -0.269884
vn 0.142313 -0.947366 -0.286783
vn 0.450241 -0.829547 -0.330357
vn 0.451989 -0.830158 -0.326411
vn 0.0827257 -0.975639 -0.203189
vn 0.101171 -0.975685 -0.194428
vn 0.151835 -0.986442 0.0622803
vn 0.161996 -0.983392 0.0818383
vn 0.162081 -0.983413 0.0814117
vn 0.0977217 0.769789 0.630773
vn 0.20305 0.945272 0.255406
vn 0.126679 0.932413 0.338466
vn -0.116099 -0.159059 -0.980419
vn -0.118694 -0.219067 -0.968463
vn -0.119641 -0.221413 -0.967813
vn -0.345815 -0.321932 -0.881346
vn 0.0156121 0.149586 -0.988625
vn 0.0161953 0.195062 -0.980657
vn 0.0846346 0.199147 -0.976308
vn 0.0911461 0.153187 -0.983985
vn -0.498605 0.866829 0.000289875
vn -0.498965 0.866622 0
vn -0.667808 0.744334 0
vn -0.667933 0.744221 0.000388318
vn 0.997261 -0.0738639 -0.00385824
vn 0.97923 -0.202754 -0.00044604
vn 0.979206 -0.202749 -0.00695714
vn 1 0 -0.000455501
vn 1 0 -0.00060002
vn 1 0 -0.00060002
vn 1 0 -0.000455501
vn 1 0 -0.000455499
vn -0.762456 -0.64703 0.00355534
vn -0.766328 -0.642449 0.000957701
vn -0.731564 -0.68163 -0.013965
vn -0.715563 -0.698548 0.000431065
vn -0.715378 -0.698738 0.000451026
vn -0.722491 -0.690875 0.026424
vn 0.0146939 0.169453 0.985429
vn 0.0159693 0.162404 0.986595
vn 0.0160833 0.170938 0.98515
vn 0.0986995 -0.994668 0.0299025
vn 0.098547 -0.993569 -0.0557608
vn -0.811329 -0.584589 0.000471707
vn -0.811224 -0.584736 0
vn -0.766328 -0.642449 0.000445543
vn -0.745846 -0.666118 0
vn -0.750715 -0.660626 0
vn -0.750715 -0.660626 0
vn 0.0147931 0.162083 -0.986666
vn 0.0136609 0.168349 -0.985633
vn 0.014896 0.169669 -0.985388
vn -0.731622 -0.68171 0.000399663
vn -0.731011 -0.682366 0.00044037
vn -0.730938 -0.68232 0.012992
vn -0.745846 -0.666118 0.000409171
vn 0.151716 -0.987912 0.0318143
vn 0.151501 -0.987954 0.0315193
vn 0.155777 -0.987287 0.0316021
vn 0.151552 -0.988403 0.00954205
vn -0.754983 -0.655743 0.000855226
vn -0.758044 -0.652203 0.000858694
vn -0.758044 -0.652203 0.000440727
vn -0.750988 -0.660316 0.000412655
vn -0.745847 -0.666118 0.000542706
vn -0.745847 -0.666118 0.000409209
vn -0.753603 -0.65733 0.000438144
vn -0.753243 -0.657742 0.000548088
vn -0.758044 -0.652203 0.000440727
vn -0.766328 -0.642449 0.000445543
vn -0.766328 -0.642449 0
vn -0.762153 -0.647393 -0.00204195
vn -0.758044 -0.652203 0
vn 0.156372 -0.987566 -0.016178
vn 0.155838 -0.987779 0.0025127
vn 0.151973 -0.988356 0.00749917
vn 0.151917 -0.988385 0.00401527
# 270 vertex normals

s 1
f 24//1 5//1 12//1
f 29//2 1//2 8//2
f 29//3 8//3 15//3
f 30//4 15//4 8//4
f 31//5 29//5 15//5
f 39//6 20//6 11//6
f 41//7 1//7 31//7
f 41//8 31//8 19//8
f 41//9 19//9 23//9
f 42//10 30//10 8//10
f 43//11 5//11 22//11
f 43//12 22//12 9//12
f 43//13 40//13 21//13
f 44//14 22//14 17//14
f 44//15 9//15 22//15
f 44//16 17//16 34//16
f 46//17 19//17 31//17
f 46//18 39//18 11//18
f 46//19 4//19 39//19
f 49//20 24//20 12//20
f 50//21 25//21 7//21
f 50//22 7//22 26//22
f 51//23 25//23 2//23
f 51//24 30//24 7//24
f 51//25 7//25 25//25
f 52//26 26//26 7//26
f 52//27 3//27 26//27
f 52//28 16//28 33//28
f 52//29 42//29 16//29
f 52//30 7//30 30//30
f 52//31 30//31 42//31
f 53//32 26//32 3//32
f 53//33 34//33 17//33
f 53//34 44//34 34//34
f 53//35 3//35 9//35
f 53//36 9//36 44//36
f 54//37 2//37 25//37
f 54//38 25//38 27//38
f 55//39 14//39 35//39
f 55//40 27//40 25//40
f 55//41 25//41 50//41
f 56//42 31//42 1//42
f 56//43 1//43 29//43
f 56//44 29//44 31//44
f 57//45 39//45 4//45
f 58//46 4//46 15//46
f 58//47 15//47 30//47
f 59//48 18//48 10//48
f 59//49 51//49 18//49
f 59//50 32//50 51//50
f 60//51 47//51 28//51
f 61//52 26//52 53//52
f 62//53 50//53 26//53
f 63//54 36//54 6//54
f 63//55 10//55 36//55
f 63//56 37//56 10//56
f 63//57 6//57 37//57
f 64//58 36//58 10//58
f 64//59 10//59 18//59
f 64//60 18//60 36//60
f 65//61 10//61 37//61
f 65//62 20//62 39//62
f 65//63 39//63 57//63
f 66//64 37//64 6//64
f 66//65 11//65 20//65
f 68//66 1//66 41//66
f 68//67 43//67 21//67
f 68//68 41//68 43//68
f 68//69 42//69 8//69
f 68//70 8//70 1//70
f 69//71 41//71 23//71
f 69//72 12//72 41//72
f 69//73 24//73 49//73
f 69//74 49//74 12//74
f 69//75 48//75 24//75
f 69//76 23//76 45//76
f 70//77 21//77 16//77
f 70//78 16//78 42//78
f 70//79 42//79 68//79
f 71//80 12//80 5//80
f 71//81 5//81 43//81
f 71//82 43//82 41//82
f 71//83 41//83 12//83
f 72//84 43//84 9//84
f 73//85 45//85 23//85
f 73//86 6//86 45//86
f 73//87 23//87 19//87
f 74//88 45//88 6//88
f 74//89 6//89 36//89
f 74//90 36//90 45//90
f 75//91 45//91 36//91
f 75//92 36//92 18//92
f 76//93 38//93 6//93
f 76//94 66//94 38//94
f 76//95 46//95 11//95
f 76//96 11//96 66//96
f 77//97 31//97 15//97
f 77//98 4//98 46//98
f 78//99 24//99 13//99
f 78//100 13//100 47//100
f 78//101 47//101 5//101
f 78//102 5//102 24//102
f 79//103 47//103 13//103
f 79//104 28//104 47//104
f 80//105 24//105 48//105
f 81//106 69//106 45//106
f 81//107 48//107 69//107
f 82//108 51//108 2//108
f 82//109 18//109 51//109
f 82//110 75//110 18//110
f 83//111 51//111 32//111
f 83//112 30//112 51//112
f 83//113 58//113 30//113
f 83//114 32//114 58//114
f 84//115 3//115 52//115
f 85//116 54//116 27//116
f 85//117 79//117 13//117
f 86//118 55//118 50//118
f 86//119 14//119 55//119
f 86//120 62//120 14//120
f 86//121 50//121 62//121
f 87//122 55//122 35//122
f 87//123 35//123 28//123
f 87//124 28//124 79//124
f 88//125 10//125 57//125
f 88//126 57//126 4//126
f 88//127 59//127 10//127
f 89//128 22//128 5//128
f 89//129 5//129 47//129
f 91//130 60//130 28//130
f 91//131 28//131 35//131
f 91//132 35//132 90//132
f 91//133 90//133 22//133
f 91//134 22//134 60//134
f 92//135 61//135 53//135
f 92//136 53//136 17//136
f 93//137 35//137 14//137
f 93//138 14//138 62//138
f 93//139 62//139 26//139
f 93//140 26//140 61//140
f 94//141 65//141 37//141
f 94//142 20//142 65//142
f 94//143 66//143 20//143
f 94//144 37//144 66//144
f 95//145 65//145 57//145
f 95//146 57//146 10//146
f 96//147 66//147 6//147
f 96//148 6//148 38//148
f 96//149 38//149 66//149
f 97//150 67//150 16//150
f 97//151 16//151 21//151
f 98//152 70//152 68//152
f 98//153 68//153 21//153
f 98//154 21//154 70//154
f 99//155 40//155 43//155
f 99//156 43//156 72//156
f 100//157 19//157 46//157
f 101//158 76//158 6//158
f 101//159 100//159 46//159
f 101//160 46//160 76//160
f 102//161 46//161 31//161
f 103//162 77//162 15//162
f 103//163 15//163 4//163
f 103//164 4//164 77//164
f 104//165 27//165 55//165
f 104//166 85//166 27//166
f 104//167 79//167 85//167
f 104//168 87//168 79//168
f 104//169 55//169 87//169
f 105//170 13//170 24//170
f 105//171 24//171 80//171
f 105//172 85//172 13//172
f 107//173 81//173 45//173
f 107//174 45//174 75//174
f 107//175 82//175 81//175
f 107//176 75//176 82//176
f 108//177 48//177 81//177
f 108//178 81//178 82//178
f 108//179 106//179 48//179
f 108//180 82//180 106//180
f 109//181 33//181 16//181
f 109//182 16//182 67//182
f 110//183 84//183 52//183
f 110//184 52//184 33//184
f 110//185 109//185 84//185
f 110//186 33//186 109//186
f 111//187 72//187 9//187
f 112//188 32//188 59//188
f 112//189 59//189 88//189
f 112//190 58//190 32//190
f 113//191 88//191 4//191
f 113//192 4//192 58//192
f 113//193 112//193 88//193
f 114//194 60//194 22//194
f 114//195 22//195 89//195
f 114//196 89//196 47//196
f 114//197 47//197 60//197
f 115//198 17//198 22//198
f 115//199 22//199 90//199
f 116//200 61//200 92//200
f 116//201 93//201 61//201
f 116//202 35//202 93//202
f 117//203 95//203 10//203
f 117//204 10//204 65//204
f 117//205 65//205 95//205
f 119//206 21//206 40//206
f 119//207 40//207 99//207
f 119//208 99//208 72//208
f 119//209 118//209 21//209
f 120//210 73//210 19//210
f 120//211 100//211 101//211
f 120//212 101//212 6//212
f 120//213 6//213 73//213
f 121//214 77//214 46//214
f 121//215 46//215 102//215
f 121//216 102//216 31//216
f 121//217 31//217 77//217
f 122//218 105//218 80//218
f 122//219 54//219 85//219
f 122//220 85//220 105//220
f 122//221 2//221 54//221
f 122//222 80//222 48//222
f 122//223 48//223 106//223
f 122//224 106//224 82//224
f 122//225 82//225 2//225
f 123//226 109//226 67//226
f 123//227 67//227 97//227
f 124//228 72//228 111//228
f 125//229 111//229 9//229
f 125//230 9//230 3//230
f 125//231 3//231 84//231
f 126//232 113//232 58//232
f 126//233 58//233 112//233
f 126//234 112//234 113//234
f 127//235 92//235 17//235
f 127//236 17//236 115//236
f 128//237 97//237 21//237
f 128//238 21//238 118//238
f 128//239 123//239 97//239
f 129//240 72//240 124//240
f 130//241 119//241 72//241
f 130//242 72//242 129//242
f 131//243 120//243 19//243
f 131//244 19//244 100//244
f 131//245 100//245 120//245
f 132//246 124//246 111//246
f 132//247 111//247 125//247
f 132//248 125//248 84//248
f 132//249 129//249 124//249
f 133//250 116//250 92//250
f 133//251 92//251 127//251
f 133//252 35//252 116//252
f 133//253 127//253 115//253
f 134//254 84//254 109//254
f 134//255 109//255 123//255
f 134//256 123//256 130//256
f 135//257 130//257 129//257
f 135//258 132//258 84//258
f 135//259 129//259 132//259
f 135//260 134//260 130//260
f 135//261 84//261 134//261
f 136//262 130//262 123//262
f 136//263 123//263 128//263
f 136//264 128//264 118//264
f 136//265 118//265 119//265
f 136//266 119//266 130//266
f 137//267 90//267 35//267
f 137//268 35//268 133//268
f 137//269 133//269 115//269
f 137//270 115//270 90//270
#270 polygons

