# Aspose.3D Wavefront OBJ Exporter
# Copyright 2004-2024 Aspose Pty Ltd.
# File created: 12/23/2024 16:22:58

g node

#
# object node
#

v 0 -0.0134304 -0.0111055
v 0 -0.0129466 -0.0106553
v 0 -0.0102306 0.00784198
v 0 -0.0102628 -0.00677388
v 0 -0.0103764 -0.00779166
v 0 -0.0112658 0.00910355
v 0 -0.0132407 0.011279
v 0 -0.0134259 0.011441
v 5.82077E-11 -0.0141742 -0.0112172
v 0 -0.0136627 -0.0111854
v 0 -0.0148281 -0.0112108
v 0 -0.0180865 0.000979157
v 0 -0.0181848 -0.000229693
v 0 -0.0165798 -0.00763754
v 0 -0.0160289 0.00877369
v 0 -0.017935 0.00165384
v 0 -0.0151832 0.0110881
v 0 -0.0147892 0.0115112
v 0 -0.0138802 0.011489
v 0 -0.0142658 0.0115055
v 0 -0.0137095 0.0114759
v 0 -0.0150288 -0.010901
v 0 -0.0163039 -0.00847921
v 0.065251 -0.002382 0.002701
v 0.0185367 0.0124532 -0.0094725
v 0.0167851 0.00861871 0.0111238
v 0.0492869 -0.0114618 -0.00908705
v 0.0120886 0.011031 0.00164947
v 0.056492 0.011135 0.00854
v 0.00667942 -0.0149618 0.0118459
v 0.062358 0.007483 -0.007968
v 0.0317818 0.0138114 0.00849374
v 0.0520184 -0.014447 0.00541367
v 0.058867 0.003582 0.010091
v 0.0122436 0.0107217 -0.00346147
v 0.065103 -0.002889 -0.007999
v 0.0176427 -0.00409612 -0.0118486
v 0.0622872 0.00767551 0.00852613
v 0.0327228 0.015504 0.000272982
v 0.0176748 0.0131883 0.00813268
v 0.013548 -0.021178 0.004019
v 0.0540764 0.00634647 0.0100855
v 0.017046 0.0009 0.011972
v 0.047407 -0.010366 0.00970581
v 0.065247 -0.002377 0.008201
v 0.0191379 0.0144768 0.00104077
v 0.0626995 0.00785112 -0.00100732
v 0.0592035 -0.00962432 -0.00798886
v 0.0172076 0.00593134 -0.0111944
v 0.00695897 -0.0159012 -0.011411
v 0.0572329 -0.00113933 -0.00872872
v 0.0565157 0.0111436 -0.00798272
v 0.0128216 -0.0170532 0.0100713
v 0.0142635 -0.0218321 -0.00185184
v 0.0121171 -0.0201865 0.00665914
v 0.0141183 -0.00737232 0.0121343
v 0.017093 0.003978 0.011739
v 0.0594551 -0.00947961 0.00819313
v 0.056617 0.011635 -0.000917
v 0.0451834 0.00734086 -0.00948596
v 0.032334 0.0138223 -0.00812932
v 0.050868 -0.013348 0.007969
v 0.0125438 -0.0197561 -0.00695047
v 0.0520875 -0.0145033 -0.0047989
v 0.058858 -0.001919 0.010095
v 0.0633511 -0.00644456 0.00115024
v 0.0493848 0.012797 0.0009005
v 0.051029 -0.013503 -0.007365
v 0.0525498 -0.0149183 0.000445046
v 0.054091 -0.004661 0.010094
v -2.91038E-10 -0.0134304 -0.0111055
v 0 -0.0102306 0.00784198
v -4.65661E-10 -0.0102628 -0.00677388
v -4.65661E-10 -0.0103764 -0.00779166
v 2.32831E-10 -0.0112658 0.00910355
v 0 -0.0134259 0.011441
v -1.10595E-09 -0.0141742 -0.0112172
v 0 -0.0136627 -0.0111854
v 5.82077E-11 -0.0148281 -0.0112108
v 6.98492E-10 -0.0180865 0.000979157
v 2.32831E-10 -0.0181848 -0.000229693
v 2.32831E-10 -0.0165798 -0.00763754
v 2.32831E-10 -0.0160289 0.00877369
v 2.32831E-10 -0.017935 0.00165384
v 0 -0.0151832 0.0110881
v -5.82077E-11 -0.0147892 0.0115112
v 2.91038E-10 -0.0138802 0.011489
v 0 -0.0142658 0.0115055
v 0 -0.0137095 0.0114759
v 4.07454E-10 -0.0150288 -0.010901
v -2.32831E-10 -0.0163039 -0.00847921
# 91 vertices

vn -1 -1.38893E-07 4.03826E-07
vn -1 7.88782E-08 -1.04659E-06
vn -1 0 0
vn -1 0 0
vn -1 0 0
vn -1 0 0
vn -1 0 0
vn -1 0 0
vn -1 0 0
vn -1 0 0
vn -1 0 0
vn -1 0 0
vn -1 0 0
vn -1 0 0
vn -1 0 0
vn -1 0 0
vn -1 0 0
vn -1 0 0
vn -1 0 0
vn -1 0 0
vn -1 0 0
vn 0.0375774 0.36303 0.93102
vn 0.147502 0.243246 0.958684
vn 0.104841 0.971619 0.212051
vn -0.869449 0.494021 -0.00108751
vn -0.722877 0.514226 -0.46154
vn -0.045727 0.553318 0.831714
vn -0.0482789 0.97939 0.196124
vn -0.702638 0.526837 0.478271
vn 0.137745 0.240612 0.960798
vn 0.0441113 0.286628 0.957026
vn 0.0402274 0.0716937 0.996615
vn 0.954269 -0.298947 0.000965953
vn 0.343614 0.0708845 0.936432
vn -0.442854 0.894046 -0.0675357
vn -0.394436 0.906284 -0.151886
vn -0.432793 0.898455 0.0739492
vn -0.0650634 0.984083 0.165371
vn -0.0844333 0.979354 -0.183678
vn 0.964881 0.255543 -0.0608525
vn 0.972051 0.233488 -0.0245084
vn 0.970252 0.242097 0.000485696
vn 0.958647 0.28075 0.0466305
vn 0.130499 -0.115787 -0.984664
vn 0.0645258 -0.0952193 -0.993363
vn 0.085406 -0.0311738 -0.995858
vn 0.0805671 -0.0274311 -0.996372
vn 0.0986964 0.0290935 -0.994692
vn 0.0464632 0.246134 -0.968121
vn 0.529754 0.8452 -0.0706892
vn -0.26425 -0.942584 -0.204224
vn 0.166357 -0.977566 0.12919
vn -0.275257 -0.928668 0.248614
vn -0.253796 -0.90851 0.33196
vn -0.0518145 -0.730222 0.681242
vn 0.142229 -0.898807 0.41463
vn 0.0446895 0.00378357 0.998994
vn 0.0397569 0.0748193 0.996404
vn 0.0357194 0.133661 0.990383
vn 0.51197 0.857422 0.0520997
vn 0.528244 0.848221 0.0384698
vn 0.526342 0.847669 -0.0664988
vn 0.156005 0.985219 -0.0707557
vn 0.0574286 0.0674761 -0.996067
vn 0.0861557 0.133534 -0.987292
vn 0.0469133 0.243185 -0.968845
vn 0.0770274 0.020437 -0.996819
vn 0.0876914 0.0357067 -0.995508
vn 0.0496599 0.39817 -0.915966
vn -0.0783619 0.978229 -0.192164
vn 0.109075 0.973719 -0.199935
vn 0.0945405 -0.416824 0.904057
vn 0.108858 -0.743282 0.660062
vn 0.0941773 -0.468693 0.878327
vn 0.141134 -0.884804 0.444075
vn 0.142472 -0.369464 0.918258
vn 0.345423 -0.795609 0.497684
vn -0.183568 -0.869811 -0.457966
vn 0.0454548 0.000652025 0.998966
vn 0.0566852 -0.0933331 0.99402
vn 0.137934 -0.231359 0.963041
vn 0.26328 -0.215737 0.940288
vn 0.284236 0.000232109 0.958754
vn 0.747476 -0.654886 -0.111373
vn 0.902627 -0.430387 0.00557915
vn 0.765612 -0.624498 0.154403
vn 0.160135 0.987076 0.00613206
vn 0.157506 0.985188 0.0678
vn 0.171684 0.983656 0.054276
vn 0.103492 -0.68477 -0.721373
vn 0.105635 -0.587006 -0.802661
vn 0.142608 -0.90087 -0.409996
vn 0.141649 -0.899228 -0.413913
vn 0.190092 -0.533218 -0.824345
vn 0.351091 -0.814289 -0.462243
vn 0.170151 -0.979138 0.111074
vn 0.18236 -0.978773 -0.0935357
vn 0.514851 -0.846526 0.135362
vn 0.526865 -0.842389 -0.113114
vn 0.617141 -0.786849 0.00230816
vn 0.617488 -0.786553 -0.00657018
vn 0.0590852 -0.103083 0.992916
vn 0.0684774 -0.147368 0.986709
vn 0.116093 -0.202183 0.972443
vn -0.66345 0.509693 -0.547765
vn -0.663451 0.509692 -0.547765
vn -0.858398 0.50982 -0.0568856
vn -0.858398 0.50982 -0.0568856
vn -0.719072 0.537229 0.440818
vn -0.719072 0.537229 0.440819
vn -0.647803 0.501498 0.573456
vn -0.647801 0.501496 0.573459
vn -0.0709742 0.0618714 -0.995557
vn -0.0709752 0.0618731 -0.995557
vn -0.347703 0.304946 -0.886629
vn -0.347701 0.304945 -0.88663
vn -0.0302427 -0.0096801 -0.999496
vn -0.0302426 -0.00967992 -0.999496
vn -0.238547 -0.967931 0.0787695
vn -0.238547 -0.967931 0.0787698
vn -0.262292 -0.94154 0.211437
vn -0.262292 -0.94154 0.211436
vn -0.0529845 -0.730768 0.680566
vn -0.0529844 -0.730769 0.680565
vn -0.06522 0.0426406 0.996959
vn -0.0652209 0.0426426 0.996959
vn -0.0497629 0.0108249 0.998702
vn -0.0497628 0.0108265 0.998702
vn -0.140296 0.120962 0.982693
vn -0.140298 0.120963 0.982692
vn -0.0945226 0.0765796 0.992573
vn -0.0945228 0.0765798 0.992573
vn -0.143557 -0.830585 -0.538071
vn -0.143557 -0.830585 -0.53807
vn -0.218168 -0.927354 -0.304003
vn -0.218168 -0.927354 -0.304004
# 136 vertex normals

s 1
f 1//1 10//1 9//1
f 1//2 9//2 11//2
f 1//3 11//3 22//3
f 1//4 22//4 23//4
f 1//5 23//5 14//5
f 1//6 14//6 13//6
f 1//7 13//7 12//7
f 1//8 12//8 16//8
f 1//9 16//9 15//9
f 1//10 15//10 17//10
f 1//11 17//11 18//11
f 1//12 18//12 20//12
f 1//13 20//13 19//13
f 1//14 19//14 21//14
f 1//15 21//15 8//15
f 1//16 8//16 7//16
f 1//17 7//17 6//17
f 1//18 6//18 3//18
f 1//19 3//19 4//19
f 1//20 4//20 5//20
f 1//21 5//21 2//21
f 32//22 26//22 29//22
f 38//23 29//23 34//23
f 39//24 32//24 29//24
f 28//25 73//25 72//25
f 74//26 35//26 2//26
f 40//27 26//27 32//27
f 40//28 32//28 39//28
f 7//29 40//29 75//29
f 42//30 34//30 29//30
f 42//31 29//31 26//31
f 43//32 34//32 42//32
f 45//33 36//33 24//33
f 45//34 38//34 34//34
f 46//35 35//35 28//35
f 46//36 25//36 35//36
f 46//37 28//37 40//37
f 46//38 40//38 39//38
f 46//39 39//39 25//39
f 47//40 36//40 31//40
f 47//41 24//41 36//41
f 47//42 45//42 24//42
f 47//43 38//43 45//43
f 48//44 27//44 36//44
f 50//45 37//45 27//45
f 51//46 36//46 27//46
f 51//47 27//47 37//47
f 51//48 31//48 36//48
f 52//49 49//49 25//49
f 52//50 47//50 31//50
f 54//51 81//51 82//51
f 54//52 33//52 41//52
f 55//53 83//53 84//53
f 55//54 85//54 83//54
f 55//55 53//55 30//55
f 55//56 41//56 33//56
f 56//57 34//57 43//57
f 57//58 43//58 42//58
f 57//59 42//59 26//59
f 59//60 29//60 38//60
f 59//61 38//61 47//61
f 59//62 47//62 52//62
f 59//63 52//63 39//63
f 60//64 37//64 49//64
f 60//65 52//65 31//65
f 60//66 49//66 52//66
f 60//67 51//67 37//67
f 60//68 31//68 51//68
f 61//69 52//69 25//69
f 61//70 25//70 39//70
f 61//71 39//71 52//71
f 62//72 44//72 30//72
f 62//73 53//73 55//73
f 62//74 30//74 53//74
f 62//75 55//75 33//75
f 62//76 58//76 44//76
f 62//77 33//77 58//77
f 63//78 91//78 90//78
f 65//79 34//79 56//79
f 65//80 56//80 30//80
f 65//81 44//81 58//81
f 65//82 58//82 45//82
f 65//83 45//83 34//83
f 66//84 48//84 36//84
f 66//85 36//85 45//85
f 66//86 45//86 58//86
f 67//87 59//87 39//87
f 67//88 39//88 29//88
f 67//89 29//89 59//89
f 68//90 63//90 50//90
f 68//91 50//91 27//91
f 68//92 64//92 54//92
f 68//93 54//93 63//93
f 68//94 27//94 48//94
f 68//95 48//95 64//95
f 69//96 33//96 54//96
f 69//97 54//97 64//97
f 69//98 58//98 33//98
f 69//99 64//99 48//99
f 69//100 66//100 58//100
f 69//101 48//101 66//101
f 70//102 65//102 30//102
f 70//103 30//103 44//103
f 70//104 44//104 65//104
f 35//105 71//105 2//105
f 71//106 35//106 25//106
f 73//107 35//107 74//107
f 35//108 73//108 28//108
f 40//109 28//109 75//109
f 72//110 75//110 28//110
f 76//111 26//111 7//111
f 40//112 7//112 26//112
f 49//113 37//113 78//113
f 77//114 78//114 37//114
f 49//115 71//115 25//115
f 71//116 49//116 78//116
f 50//117 77//117 37//117
f 77//118 50//118 79//118
f 54//119 41//119 81//119
f 80//120 81//120 41//120
f 55//121 80//121 41//121
f 80//122 55//122 84//122
f 55//123 30//123 85//123
f 86//124 85//124 30//124
f 56//125 87//125 88//125
f 87//126 56//126 43//126
f 56//127 88//127 30//127
f 86//128 30//128 88//128
f 57//129 76//129 89//129
f 76//130 57//130 26//130
f 57//131 89//131 43//131
f 87//132 43//132 89//132
f 63//133 90//133 50//133
f 79//134 50//134 90//134
f 63//135 82//135 91//135
f 82//136 63//136 54//136
#136 polygons

