solid Cone
  facet normal 0.426402 0.639602 0.639602
    outer loop
      vertex 0.08625 0 0
      vertex 0.06375 0.015 0
      vertex 0.06375 0 0.015
    endloop
  endfacet
  facet normal 0.426402 -0.639602 0.639602
    outer loop
      vertex 0.08625 0 0
      vertex 0.06375 0 0.015
      vertex 0.06375 -0.015 0
    endloop
  endfacet
  facet normal 0.426402 -0.639602 -0.639602
    outer loop
      vertex 0.08625 0 0
      vertex 0.06375 -0.015 0
      vertex 0.06375 0 -0.015
    endloop
  endfacet
  facet normal 0.426402 0.639602 -0.639602
    outer loop
      vertex 0.08625 0 0
      vertex 0.06375 0 -0.015
      vertex 0.06375 0.015 0
    endloop
  endfacet
  facet normal -1 0 0
    outer loop
      vertex 0.06375 0 -0.015
      vertex 0.06375 -0.015 0
      vertex 0.06375 0 0.015
    endloop
  endfacet
endsolid Cone
solid Cone__1
  facet normal -0.639602 0.639602 0.426401
    outer loop
      vertex 0 0 0.08625
      vertex 0 0.015 0.06375
      vertex -0.015 0 0.06375
    endloop
  endfacet
  facet normal -0.639602 -0.639602 0.426401
    outer loop
      vertex 0 0 0.08625
      vertex -0.015 0 0.06375
      vertex 0 -0.015 0.06375
    endloop
  endfacet
  facet normal 0.639602 -0.639602 0.426401
    outer loop
      vertex 0 0 0.08625
      vertex 0 -0.015 0.06375
      vertex 0.015 0 0.06375
    endloop
  endfacet
  facet normal 0.639602 0.639602 0.426401
    outer loop
      vertex 0 0 0.08625
      vertex 0.015 0 0.06375
      vertex 0 0.015 0.06375
    endloop
  endfacet
  facet normal 0 0 -1
    outer loop
      vertex 0.015 0 0.06375
      vertex 0 -0.015 0.06375
      vertex -0.015 0 0.06375
    endloop
  endfacet
endsolid Cone__1
solid Cone__2
  facet normal -0.639602 -0.426402 0.639602
    outer loop
      vertex 0 -0.08625 0
      vertex 0 -0.06375 0.015
      vertex -0.015 -0.06375 0
    endloop
  endfacet
  facet normal -0.639602 -0.426402 -0.639602
    outer loop
      vertex 0 -0.08625 0
      vertex -0.015 -0.06375 0
      vertex 0 -0.06375 -0.015
    endloop
  endfacet
  facet normal 0.639602 -0.426402 -0.639602
    outer loop
      vertex 0 -0.08625 0
      vertex 0 -0.06375 -0.015
      vertex 0.015 -0.06375 0
    endloop
  endfacet
  facet normal 0.639602 -0.426402 0.639602
    outer loop
      vertex 0 -0.08625 0
      vertex 0.015 -0.06375 0
      vertex 0 -0.06375 0.015
    endloop
  endfacet
  facet normal 0 1 0
    outer loop
      vertex 0.015 -0.06375 0
      vertex 0 -0.06375 -0.015
      vertex -0.015 -0.06375 0
    endloop
  endfacet
endsolid Cone__2
solid Cone__3
  facet normal 0.426402 0.639602 0.639602
    outer loop
      vertex 0.08625 0 0
      vertex 0.06375 0.015 0
      vertex 0.06375 0 0.015
    endloop
  endfacet
  facet normal 0.426402 -0.639602 0.639602
    outer loop
      vertex 0.08625 0 0
      vertex 0.06375 0 0.015
      vertex 0.06375 -0.015 0
    endloop
  endfacet
  facet normal 0.426402 -0.639602 -0.639602
    outer loop
      vertex 0.08625 0 0
      vertex 0.06375 -0.015 0
      vertex 0.06375 0 -0.015
    endloop
  endfacet
  facet normal 0.426402 0.639602 -0.639602
    outer loop
      vertex 0.08625 0 0
      vertex 0.06375 0 -0.015
      vertex 0.06375 0.015 0
    endloop
  endfacet
  facet normal -1 0 0
    outer loop
      vertex 0.06375 0 -0.015
      vertex 0.06375 -0.015 0
      vertex 0.06375 0 0.015
    endloop
  endfacet
endsolid Cone__3
solid Cone__4
  facet normal -0.639602 0.639602 0.426401
    outer loop
      vertex 0 0 0.08625
      vertex 0 0.015 0.06375
      vertex -0.015 0 0.06375
    endloop
  endfacet
  facet normal -0.639602 -0.639602 0.426401
    outer loop
      vertex 0 0 0.08625
      vertex -0.015 0 0.06375
      vertex 0 -0.015 0.06375
    endloop
  endfacet
  facet normal 0.639602 -0.639602 0.426401
    outer loop
      vertex 0 0 0.08625
      vertex 0 -0.015 0.06375
      vertex 0.015 0 0.06375
    endloop
  endfacet
  facet normal 0.639602 0.639602 0.426401
    outer loop
      vertex 0 0 0.08625
      vertex 0.015 0 0.06375
      vertex 0 0.015 0.06375
    endloop
  endfacet
  facet normal 0 0 -1
    outer loop
      vertex 0.015 0 0.06375
      vertex 0 -0.015 0.06375
      vertex -0.015 0 0.06375
    endloop
  endfacet
endsolid Cone__4
solid Cone__5
  facet normal -0.639602 -0.426402 0.639602
    outer loop
      vertex 0 -0.08625 0
      vertex 0 -0.06375 0.015
      vertex -0.015 -0.06375 0
    endloop
  endfacet
  facet normal -0.639602 -0.426402 -0.639602
    outer loop
      vertex 0 -0.08625 0
      vertex -0.015 -0.06375 0
      vertex 0 -0.06375 -0.015
    endloop
  endfacet
  facet normal 0.639602 -0.426402 -0.639602
    outer loop
      vertex 0 -0.08625 0
      vertex 0 -0.06375 -0.015
      vertex 0.015 -0.06375 0
    endloop
  endfacet
  facet normal 0.639602 -0.426402 0.639602
    outer loop
      vertex 0 -0.08625 0
      vertex 0.015 -0.06375 0
      vertex 0 -0.06375 0.015
    endloop
  endfacet
  facet normal 0 1 0
    outer loop
      vertex 0.015 -0.06375 0
      vertex 0 -0.06375 -0.015
      vertex -0.015 -0.06375 0
    endloop
  endfacet
endsolid Cone__5
